<?xml version="1.0" encoding="utf-8"?>
<!-- Generator: Adobe Illustrator 21.0.1, SVG Export Plug-In . SVG Version: 6.00 Build 0)  -->
<svg version="1.1" id="Layer_1" xmlns="http://www.w3.org/2000/svg" xmlns:xlink="http://www.w3.org/1999/xlink" x="0px" y="0px"
	 viewBox="0 0 11708.5 3585.1" style="enable-background:new 0 0 11708.5 3585.1;" xml:space="preserve">
<style type="text/css">
	.st0{fill:url(#SVGID_1_);}
	.st1{fill:#C4DD31;}
	.st2{fill:#25BF67;}
	.st3{fill:#29CCC4;}
	.st4{fill:#F95396;}
	.st5{fill:#22C42F;}
	.st6{fill:#9A4DF1;}
	.st7{fill:#FF7900;}
	.st8{fill:#3495FF;}
	.st9{fill:#BA51F2;}
	.st10{fill:#FFD400;}
	.st11{fill:#E85749;}
	.st12{fill:#6868E0;}
	.st13{fill:#23C194;}
	.st14{fill:#FFA300;}
	.st15{fill:#3BD0F2;}
	.st16{fill:#4086F5;}
	.st17{fill:#FF2F3D;}
</style>
<g>
	<g>
		
			<radialGradient id="SVGID_1_" cx="1884.8505" cy="1827.807" r="1606.1848" gradientTransform="matrix(1 0 0 -1 0 3586)" gradientUnits="userSpaceOnUse">
			<stop  offset="0.7003" style="stop-color:#000000"/>
			<stop  offset="0.9987" style="stop-color:#FFFFFF;stop-opacity:0"/>
		</radialGradient>
		<path class="st0" d="M3525.8,1797.2c-31.1,4.6-62.7,8.9-93.3,13.2c-7.6,1.1-15.1,2.1-22.7,3.2c-18.2,2.5-36.7,5.1-54.5,7.5
			c-21.9,3-44.6,6.1-66.9,9.3c-20.4,2.9-41.2,5.8-61.2,8.7c-19.3,2.8-39.2,5.6-58.8,8.4c-27.6,3.9-55.7,7.7-82.8,11.5
			c-12.4,1.7-24.8,3.4-37.2,5.1c-6.1,0.8-12.3,1.7-18.4,2.6c-13.7,1.9-27.8,4-41.5,5.6c-13.5,1.6-27.9,2.7-40.6,3.7
			c-14.5,1.1-29.4,2.2-43.8,3.2c-13.8,1-28,2-42,3c-14.6,1.1-29.4,2.3-43.6,3.4c-13.4,1.1-27.3,2.2-40.9,3.2
			c-14.6,1.1-29.6,2.2-44,3.2c-13.7,1-27.8,2-41.8,3.1c-15.5,1.2-31.1,2.4-46.3,3.6c-13.4,1.1-27.2,2.1-40.8,3.2
			c-14.3,1.1-28.8,2.1-42.9,3.2c-12.6,0.9-25.1,1.8-37.7,2.8c-15.5,1.2-30.9,2.4-46.4,3.5c-15.3,1.2-30.6,2.4-45.9,3.5
			c-13.2,1-26.4,2-39.6,2.9c-13.4,1-27.3,2-41,3c-15.2,1.1-30.4,2.3-45.5,3.5c-15.6,1.2-31.2,2.4-46.7,3.6
			c-22.9,1.7-46.3,3.4-68.9,5.1l-13,0.9c-5,0.4-10.1,0.7-15.1,1.1c-8.7,0.6-17.7,1.3-26.7,2c-5.8,0.5-10.3,1.6-13,2.4
			c-0.2,0.1-0.5,0.1-0.8,0.2l-33.3,7.6l-4.4,33.9c-0.2,1.8-0.5,3.6-0.7,5.3c-0.6,4.4-1.3,9.5-1.8,14.8c-1.3,14.3-2.5,28.7-3.6,42.7
			c-0.8,9.2-1.5,18.4-2.3,27.6c-1.1,12.5-2.1,25-3.2,37.6c-1.3,14.9-2.6,30.4-3.9,45.6c-1,11.9-2,23.9-2.9,35.6
			c-1,12.6-2.1,25.7-3.2,38.5c-1.2,13.6-2.4,27.5-3.6,40.9c-1.1,12.3-2.2,24.7-3.2,37c-1.1,12.7-2.2,25.5-3.2,38
			c-1,11.6-1.9,23.2-2.9,34.8c-1.1,13.4-2.3,26.8-3.5,40.2s-2.3,26.9-3.5,40.4c-1,12.2-2,24.3-3.1,36.5c-1,12.1-2,24.2-3,36.3
			c-1.2,14.6-2.5,29.2-3.8,43.9c-1.1,12.2-2.1,24.4-3.2,36.7c-1.1,12.8-2.2,25.5-3.2,38.3c-0.9,10.6-1.8,21.3-2.7,31.9
			c-1,11.8-2,23.7-2.9,35.3c-2.4,28.7-4.8,58.4-7.7,87.4c-1.2,11.8-3.3,24-5.6,37c-1,5.9-2.1,12-3.1,18.1
			c-3.8,23.4-7.5,46.9-11.3,70.3c-2.7,16.9-5.5,33.8-8.2,50.7c-3.1,19.1-6.1,38.2-9.2,57.3c-3.5,21.7-7,43.3-10.5,65
			c-2.5,15.4-5,30.8-7.4,46.2c-3.1,19.4-6.3,38.7-9.4,58.1c-3.4,21.4-6.9,42.8-10.3,64.2c-2.2,13.8-4.4,27.6-6.6,41.4l-1.3,8.1
			c-0.3,1.7-0.6,3.5-0.8,5.2c-26,0.3-60.7,0.5-87.5,0.4c-1.8-13.1-3.7-26.3-5.5-39.4c-3.5-25.4-7.2-51.6-10.9-77.4
			c-3.7-26.1-7.5-52.6-11.2-78.2c-3.7-25.6-7.5-52-11.2-78c-3.3-23.6-6.7-47.6-9.9-70.8c-3.1-22-6.3-44.8-9.4-67.3
			c-1.7-12.2-3.6-24.6-5.3-36.6c-3.1-20.9-6.3-42.4-9-63.4c-2-15.9-3.3-32-4.7-49c-0.3-4.1-0.7-8.2-1-12.3
			c-3.4-41.3-6.7-83.4-9.8-124.1v-0.5c-1-13-2-26.3-3-39.1c-1.1-14-2.1-28.5-3.3-42.9c-1.2-14.7-2.4-29.6-3.6-44
			c-1-12.4-2.1-25.3-3.1-37.9c-1.1-13.8-2.2-27.9-3.2-41.6c-0.9-12.1-1.9-24.3-2.8-36.4c-1.2-15.4-2.5-30.9-3.7-46.3
			c-1.1-14-2.3-28.1-3.4-42.1c-1.1-13.4-2.1-26.8-3.1-40.1c-0.9-11.7-1.8-23.5-2.7-35.2c-1-12.7-2-25.5-3-38.2
			c-1.4-17.3-2.8-35.2-4.2-52.7c-1.1-13.7-2.1-27.7-3.1-41.2c-1-13.3-2-27.1-3.1-40.7c-0.9-11.9-2.5-29.7-3.7-42.4
			c-2.7-29.1-3-30.4-3.8-33.9l-7-30.2l-30.3-6.5c-3.6-0.8-4.7-1-40-3.9c-18.2-1.5-39.2-3.2-52.3-4.2c-15.1-1.1-30.4-2.3-45.2-3.5
			c-13.7-1.1-27.9-2.2-41.8-3.2c-14.4-1.1-29-2.1-43.1-3.2c-12.5-0.9-25-1.8-37.6-2.8c-15.7-1.2-31.5-2.4-47.2-3.6
			c-15.5-1.2-30.9-2.4-46.4-3.5c-13.4-1-26.8-2-40.3-3c-13.4-1-26.9-2-40.3-3c-16.3-1.2-32.6-2.5-48.9-3.7
			c-14.9-1.1-29.8-2.3-44.7-3.4c-13.8-1-27.6-2.1-41.4-3.1c-12.6-0.9-25.3-1.9-37.9-2.8c-13.7-1-27.5-2.1-41.2-3.1
			c-17.6-1.3-35.8-2.7-53.7-4.1c-11.3-0.8-22.8-1.7-33.9-2.5c-16.6-1.2-33.7-2.4-50.5-3.7c-7.5-0.6-14.9-1.1-22.4-1.7
			c-24-1.8-46.7-3.5-69.4-6c-23.7-2.7-48.1-6.2-71.7-9.6c-10.4-1.5-21.1-3-31.7-4.5c-12.5-1.7-25-3.5-37.6-5.2
			c-15.5-2.1-30.9-4.3-46.4-6.4c-32.8-4.5-65.7-9-98.5-13.5l-7.4-1c-15.6-2.1-31.2-4.3-46.8-6.4c-19.3-2.6-38.5-5.3-57.8-7.9
			c-34.4-4.7-68.9-9.5-103.3-14.2l-9.2-1.3c-10.3-1.4-20.9-2.9-31.4-4.3c0-25.5,0-51.7,0-79c28.2-3.9,57.5-8,86.5-11.9
			c20.1-2.8,40.3-5.5,60.4-8.3c14.3-1.9,28.6-3.9,42.9-5.8c34-4.7,68-9.3,102.1-14c35.1-4.8,71.5-9.8,107.2-14.8
			c12.3-1.7,24.6-3.4,37-5.2c22.1-3.1,45-6.3,67.4-9.3l3.8-0.5c26.6-3.6,51.7-7,77-8.6c34.4-2.2,69.1-5,102.7-7.7
			c17.2-1.4,35.1-2.8,52.6-4.1c14.5-1.1,29.3-2.1,43.6-3.1s29-2,43.6-3.1c20.9-1.6,42-3.2,62.5-4.8c18.7-1.5,38.1-3,57.1-4.4
			c15-1.1,30.3-2.2,45.1-3.3c13.3-1,27.1-1.9,40.6-3c15.4-1.2,31.1-2.4,46.2-3.6c13.4-1,27.3-2.1,40.9-3.2c14.4-1.1,29-2.2,43.1-3.2
			c12.9-0.9,25.8-1.9,38.8-2.9c14.7-1.1,29.3-2.2,44-3.4c15.8-1.2,32.2-2.5,48.3-3.7c14.4-1.1,29.1-2.1,43.4-3.2
			c13.9-1,28.3-2,42.4-3.1c8-0.6,16-1.3,23.7-1.9c3.6-0.3,7.1-0.6,10.8-0.9l35.4-2.9l8.1-34.5c0.1-0.3,0.1-0.5,0.2-0.7
			c0.7-2.6,2-7.4,2.5-13.4c1.3-16.5,2.6-33.2,3.8-49.4c1.4-18.7,2.9-38.1,4.5-57.1c1.9-23.4,3.8-47.1,5.7-70.1
			c2-25.1,4.2-51.1,6.2-76.7c1.1-14.2,2.2-28.6,3.2-42.5c1-13.4,2-27.2,3.1-40.8c1.6-20,3.2-40.4,4.9-60.1c1.5-17.8,3-36.1,4.4-54.2
			c1.1-14.3,2.2-28.7,3.3-42.7c0.9-12.5,1.9-25.3,2.9-38c1.1-14.3,2.3-28.8,3.5-42.9c1.1-13.6,2.3-27.7,3.4-41.5
			c1.1-13.5,2.1-27.2,3.1-40.4c0.9-12.4,1.9-25.1,2.9-37.7c0.8-9.7,1.6-19.7,2.4-29.3c1.6-19.1,3.3-38.9,4.5-58.6
			c2-33.1,7-65.9,12.1-100.6c2-13.7,4.2-27.8,6.1-41.9c5.4-39.8,11.1-79.8,16.6-118.5c3.4-23.8,6.8-48,10.2-71.4
			c3.1-21.9,6.4-44.4,9.5-66.7c3.3-23.1,6.6-46.5,9.7-69.1c2.3-16.6,4.6-33.1,7-49.7c1.7-11.9,3.5-24.4,5.4-38.1
			c26.4-0.2,61.3-0.3,87.5-0.2l2.4,15c8.7,53.7,17.6,109.1,26.4,163.7c6.2,38.6,12.5,77.9,18.5,115.9c6.3,39.2,12.8,79.8,19.2,119.7
			c2.5,15.3,5,30.8,7.5,45.8c3.1,19.1,6.4,38.9,9.5,58.3c1,6.2,1.6,13.1,2.2,20.4l0.3,3.4c3.8,43.7,7.1,82.7,10.2,119.4
			c1.3,16.1,2.7,32.5,4,48.4c1.6,19.5,3.2,39.7,4.9,59.6c1.6,18.5,3.2,37.3,4.9,55.4c1.4,16.3,3,33.2,4.4,49.8
			c1.1,13.1,2.2,26.5,3.2,39.4c1,12.2,2,24.8,3,37.3c1.2,13.7,2.4,27.5,3.6,40.9c1,11.3,2.1,23,3.1,34.5c1.1,13.1,2.2,26.5,3.3,39.4
			c0.9,10.7,1.8,21.3,2.7,32c1.1,13,2.2,26.1,3.4,39.1c1.2,14.2,2.5,28.5,3.7,42.7c1,11.3,1.9,22.9,2.8,34
			c1.1,13.1,2.2,26.7,3.3,40.1c2.1,24.9,4.4,50.2,6.6,74.7l1,11.2c0.4,4.4,1.2,7.8,1.6,9.6c0,0.2,0.1,0.4,0.1,0.5l6.5,31.1l30.9,6.6
			c0.2,0,0.4,0.1,0.6,0.2c2.6,0.7,7.4,1.9,13.3,2.3c17.6,1.4,35.4,2.7,52.7,4s35.1,2.6,52.6,4c18.4,1.4,37.2,2.9,55.3,4.3
			c20.6,1.6,42,3.3,63,4.9c14.9,1.1,30.1,2.2,44.7,3.3c13.1,0.9,26.6,1.9,39.8,2.9c21.4,1.6,43.2,3.3,64.3,4.9
			c19.3,1.5,38.6,3,57.9,4.5c14.2,1.1,28.6,2.1,42.5,3.1c12.9,0.9,26.3,1.9,39.4,2.9c15.9,1.2,32.2,2.5,47.8,3.7
			c14.4,1.1,28.8,2.2,43.1,3.3c14,1.1,28,2.1,42,3.1c12.5,0.9,24.9,1.8,37.4,2.8c16.2,1.2,32.3,2.5,48.5,3.7
			c15,1.1,30.1,2.3,45.1,3.4c7.5,0.6,14.9,1.1,22.2,1.5c15.2,1,29.7,2,43.9,3.5c18.8,2,37.4,4.6,57.1,7.4c5.9,0.8,11.8,1.7,17.7,2.5
			c24.2,3.3,48.9,6.8,72.7,10.2c9.7,1.4,19.4,2.7,29.2,4.1l39.7,5.6c21.2,3,42.4,6,63.5,8.9c17,2.4,34,4.8,51,7.1
			c17,2.4,34,4.7,51,7.1c19.8,2.8,39.6,5.6,59.4,8.3c14.2,2,28.4,4,42.5,6c9.8,1.4,19.6,2.8,29.4,4.1c11.5,1.6,22.9,3.2,34.4,4.8
			C3525.8,1742.9,3525.8,1769.2,3525.8,1797.2z"/>
	</g>
	<path class="st1" d="M242.1,784.8c1.3-0.9,336.1-128.8,336.5-128.7c0.3-1.4,30.2-201.8,34.3-207.8c4.1-0.9,282.7-47.9,292.5-49.2
		c7.3-1,81.3-279.2,100.5-333.3c1.3-3.7,4.2-7.5,2.3-12.7c-4.8,2.4-9.1,4.5-13.3,6.7c-170.5,88.5-352,183.1-522.5,271.4
		C464.1,335.5,239,782.3,242.1,784.8z"/>
	<path class="st2" d="M487.3,1299.2c-2.2-8.5,90.2-596.3,90-597.5c-6.5-0.5-289,107.4-424.6,157.8c-4.8,1.8-9.6,3.8-14.9,5.9
		C91.8,1066.9,46,1238,0.1,1439.1c-0.2,1.1,0.4,2.4,0.7,3.8c1.5,0.2,2.7,0.6,3.9,0.4c211.9-28.1,637.7-84.6,637.9-86.1
		C632.5,1353.1,497.8,1304.6,487.3,1299.2z"/>
	<path class="st3" d="M1611.8,29.1c-1.8-0.1-368.9,82.1-551.5,123.2c-0.4,0.1-0.7,0.4-1.1,0.7c-0.4,0.2-0.7,0.5-1.5,1.2
		c-1.2,3.2-70.4,232.9-68.9,237.7c1.9,0.3,460.2-75.7,472.3-78.9c8.1,24.7,18.6,52.7,18.6,52.7c1.3,2.6,45.8,165,62.5,235.2
		c0.9,3.9,2.2,7.7,3.4,11.6C1548,608.2,1612.1,31.8,1611.8,29.1z"/>
	<path class="st4" d="M2940.6,3055.4c-7.9-1.2-579.9,97.2-584.2,95.1c-3.4-10.4-61.8-177.3-64.8-176.7c-0.3,1.2-0.7,2.5-0.9,3.7
		c-3.9,26.7-7.7,53.3-11.6,80c-5.6,38.7-11.3,77.4-16.9,116.1c-4.8,33.1-9.5,66.2-14.3,99.4c-4.8,33.5-9.7,67.1-14.6,100.6
		c-4.8,33.1-9.7,66.2-14.4,99.3c-5.1,35.3-10.1,70.5-15.1,105.8c-0.3,2,0,4,0,6.2c2.6,0,4.4,0.3,6,0
		c191.8-43.9,383.6-87.8,574.6-131.5c1.2-1.5,2-2,2.3-2.8c1.2-2.8,2.4-5.6,3.5-8.4C2840.5,3308.9,2941,3056,2940.6,3055.4z"/>
	<path class="st5" d="M1487.8,368.4c-30.7,5.5-68.4,11-98.6,15.8c-30,4.8-60,9.7-90.1,14.5c-30.5,4.9-60.9,9.6-91.4,14.5
		c-30,4.8-60.1,9.6-90.1,14.4c-30.5,4.9-60.9,9.8-91.4,14.6c-30,4.8-60.1,9.5-90.1,14.3c-30.5,4.9-60.9,9.9-91.4,14.7
		c-30,4.8-60.1,9.2-90.1,14.2c-30.3,5.1-60.8,9-91.3,15.1c-1.1,6.3-2.2,11.8-3.1,17.4c-4.8,30.9-9.5,61.8-14.3,92.8
		c-5.7,36.5-11.4,73-17.1,109.5c-6.5,42.1-12.9,84.2-19.5,126.2c-5.7,36.5-11.4,73-17.1,109.5c-5.7,36.5-11.2,73-16.9,109.5
		c-6.5,41.6-36.7,247.4-38,254.6c10.1-0.7,418.6-22.8,465-25.4c47.3-2.6,94.6-5.3,141.9-7.9c46.9-2.6,93.7-5.3,140.6-7.8
		c39-2.1,78.1-4.1,117.2-6.2c11.7-0.6,23.4-1.4,35.1-2.2c1.7-0.1,3.3-0.8,5.3-1.3c0.4-2.3,0.9-4.4,1.1-6.5c1-18.7,1.8-37.3,2.8-56
		c2.2-43,4.5-85.9,6.7-128.9c1.3-26.9,2.4-53.8,3.7-80.7c2.2-43.8,4.5-87.7,6.7-131.5c1.3-26,2.4-52.1,3.7-78.1
		c2.2-44.3,4.6-88.5,6.8-132.8c1.3-25.6,2.3-51.2,3.6-76.8c2.3-45.1,9.9-192.9,9.9-193C1487.8,378.9,1488.5,373.7,1487.8,368.4z"/>
	<path class="st6" d="M3736.8,2060.3c-1.2-0.3-2-0.8-2.8-0.7c-27.1,3.5-54.3,7.1-81.4,10.7c-29.3,3.9-58.6,7.8-87.9,11.6
		c-29.7,3.9-59.4,7.9-89.2,11.9c-29.3,3.9-58.6,7.8-87.9,11.6c-28.9,3.8-57.7,7.6-86.6,11.4c-30.2,4-60.3,8-90.5,12.1
		c-24.1,3.2-48.2,6.5-72.3,9.8c-1.7,0.2-4.2-0.5-5.3,3c5.5,1.8,10.7,3.6,16,5.2c30.4,8.9,60.9,17.7,91.4,26.6
		c1.9,0.5,53.7,20.4,65.4,26.7c-2.6,16.6-98.5,602.2-97.3,601.8c132.7-49.4,259.3-105.8,392-155.2c0.4-0.1,0.7-0.5,1-0.8
		s0.6-0.6,1.3-1.4c0.8-2.8,1.8-6.1,2.6-9.5c9.7-41.9,19.4-83.8,29.1-125.7c25.8-111.3,51.6-222.6,77.4-333.9
		c8.1-35.1,16.3-70.3,24.2-105.4C3736.8,2066.9,3738.9,2063.5,3736.8,2060.3z"/>
	<path class="st7" d="M802.3,2104.2c17.9,0.7,35.2,1.3,52.5,2.1c29.9,1.4,59.9,3,89.8,4.5c43,2.2,85.9,4.5,128.9,6.7
		c26.9,1.4,53.8,2.4,80.7,3.8c43.4,2.2,86.8,4.5,130.2,6.7c25.2,1.3,50.4,2.3,75.5,3.6c48.2,2.4,96.3,4.8,144.5,7.4
		c6,0.3,12.1-0.3,18.8,1.7c1.6,10.8,1.7,21.7,2.2,32.4c1.6,32.6,2.8,65.1,4.2,97.7c2.6,59,5.2,118.1,7.9,177.1
		c1.7,37.3,3.4,74.7,5.1,112c2.7,59.5,5.3,119,8,178.4c1.6,36,3.3,72.1,4.8,108.1c0.2,3.8-0.1,7.6-0.2,10.6
		c-1.1,1.2-1.3,1.6-1.7,1.7c-0.4,0.2-0.9,0.2-1.3,0.2c-218-31.4-436-62.9-653.9-94.4c-1.2-0.2-2.4-0.9-3.2-1.3
		c-0.7-0.6-1-0.8-1.3-1.2c-0.3-0.3-0.5-0.7-0.6-1.2c-30.7-216.3-61.3-432.7-91.9-649c-0.2-1.3-0.3-2.6-0.2-3.9
		C801.2,2107.1,801.6,2106.3,802.3,2104.2z"/>
	<path class="st8" d="M2869.3,785.1c0.8,3,1.8,5.9,2.3,8.9c30.8,208.8,61.5,417.7,92.4,627.3c-3.5,0.4-6.5,1-9.3,0.9
		c-31.7-1.5-63.4-3.1-95-4.6c-27.3-1.3-54.7-2.4-82-3.8c-43.4-2.2-86.8-4.5-130.2-6.7c-26.5-1.3-53-2.4-79.4-3.7
		c-44.3-2.2-88.5-4.5-132.8-6.7c-26.9-1.3-53.8-2.5-80.7-3.7c-23-1.1-46-2.1-69-3.3c-3.9-0.2-7.8-0.8-11.8-1.3
		c-3.2-4.1-2.7-9.1-3-13.7c-1-17.3-1.9-34.7-2.8-52.1c-2.1-40.4-23.6-439-25.8-479c-1.1-19.1-2.1-38.2-3.1-57.3
		c-1.5-29.1-3.1-58.1-4.6-87.2c-0.1-1.2,0.4-2.5,0.5-3.6c3.2-3,6.8-1.6,10.1-1.1c20.2,2.8,40.4,5.9,60.6,8.8
		c32.7,4.7,65.4,9.4,98,14.1c34,4.9,67.9,9.8,101.9,14.7c32.7,4.7,65.4,9.4,98,14.1c33.5,4.8,67.1,9.6,100.6,14.5
		c33.1,4.8,66.2,9.5,99.3,14.3c19.8,2.8,39.6,5.6,59.3,8.5C2864.9,783.6,2867,784.5,2869.3,785.1z"/>
	<path class="st9" d="M2860.3,3576.4c-2.2-4.4,0.5-7.4,1.7-10.4c16.5-42.1,33.2-84.1,49.8-126.1c58.3-147.5,116.6-295,175-442.4
		c1.8-4.4,17.5-49,25.2-51.9c35.7-13.6,107.2-40.8,142.8-54.6c151.9-58.9,303.9-117.8,455.8-176.6c4.4-1.7,8.8-3.2,13.9-5
		c1.3,4.7-1.4,7.3-2.9,10.1c-25.5,47.5-51.2,94.9-76.8,142.3c-72.1,133.5-144.2,266.9-216.2,400.4c-0.8,1.5-1.8,3-2.5,4.6
		c-2.7,6.9-7.7,11.3-14.4,14.2c-4,1.7-7.7,4.1-11.5,6.1c-175.8,94.4-351.5,188.7-527.3,283.1
		C2868.8,3572.3,2864.6,3574.3,2860.3,3576.4z"/>
	<path class="st10" d="M24.5,2066.1c214.4,28.1,426.7,56,639,83.8c3,4.6,3.2,9.5,3.9,14.1c9.1,61.5,18,123,27.1,184.4
		c8.2,55.4,16.6,110.9,24.9,166.3c6.5,43.8,12.8,87.7,19.3,131.6c6.5,43.8,13.1,87.7,19.6,131.5c5.4,36.1,10.7,72.2,16.1,108.3
		c0.2,1.6,0,3.4,0,5.3c-5.5,0.6-9.7-1.9-14-3.5c-66.9-24.6-133.7-49.2-200.6-73.8c-128.8-47.4-257.6-95-386.5-142.1
		c-9.5-3.5-13.4-8.4-15.6-17.9c-21.8-97.1-44-194-66.1-291C70.1,2269,48.7,2175,27.4,2081C26.4,2076.8,25.7,2072.5,24.5,2066.1z"/>
	<path class="st11" d="M836.1,2828.9c1.1-0.3,2.4-1,3.6-0.8c231.2,34.1,462.3,68.3,693.5,102.6c1.7,0.2,3.2,1.1,5.7,2
		c22.9,198.3,45.4,396.8,68.1,595.2c0.2,2.1-0.2,4.2-0.3,6.1c-1.4,0.4-2.3,1-3,0.8c-188.5-42.5-377-85.1-564.4-127.4
		c-1.3-1.1-1.6-1.4-1.9-1.7s-0.7-0.6-0.8-1c-0.9-2-1.7-4-2.5-6c-66-189-132-378-198-567C835.8,2830.9,836.1,2830,836.1,2828.9z"/>
	<path class="st12" d="M2982.3,681.4c5.8,2,10,3.3,14,4.8c182.7,66.9,365.4,133.9,548.1,200.9c14,5.1,11.9,2,15.5,17.7
		c22.2,96.5,44.4,193,66.6,289.5c19.6,85.1,39.1,170.1,58.7,255.2c0.9,4.1,1.6,8.3,2.3,12c-1.1,1-1.4,1.3-1.8,1.5
		c-0.4,0.2-0.8,0.3-1.2,0.3c-9.5-1.1-19-2.2-28.4-3.5c-187.8-24.6-375.6-49.3-563.3-74c-0.8-0.1-1.4-0.9-3.2-1.9
		c-35.7-231.4-71.4-463.6-107.2-695.8C2982.1,686.3,2982.3,684.6,2982.3,681.4z"/>
	<path class="st13" d="M2183.4,26.3c184.6,41.7,368.3,83.2,551.8,124.8c69.3,188.9,138.3,376.8,207.1,564.6
		c-1.9,0.7-2.8,1.3-3.5,1.2c-224.3-33-448.5-66.1-673.3-99.2c-1-3.6-2.3-6.7-2.8-10c-5.6-40-71.7-515.8-76.4-549.8
		c-1.1-8.2-2.2-16.4-3.2-24.5C2182.9,31.3,2183.2,29.2,2183.4,26.3z"/>
	<path class="st14" d="M102.4,2702.5c4,1.3,8.1,2.6,12,4.1c63.4,23.9,126.9,47.8,190.3,71.6c138.3,52,276.5,104,414.8,156
		c15.2,5.7,12.1,2.5,17.8,18c73.3,198.9,146.6,397.9,219.8,596.9c1.5,4,2.6,8.1,4.3,13.3c-4.5,0.1-7.2-1.9-10.1-3.4
		c-44.6-23.5-89.1-47.1-133.7-70.7c-136.4-72.1-272.8-144.3-409.3-216.2c-9.3-4.9-15.6-11.1-20.5-20.5
		C294.2,3073,200.4,2894.5,106.6,2716c-2-3.8-3.9-7.7-5.8-11.6C101.3,2703.8,101.8,2703.1,102.4,2702.5z"/>
	<path class="st15" d="M2822,0c5.6,2.6,8.8,3.9,11.8,5.5c175,92.9,350,185.8,525.1,278.6c6.9,3.7,11.4,8.5,15.1,15.4
		c93.4,175.2,187,350.4,280.5,525.6c2,3.7,3.6,7.5,5.7,11.7c-5.6,1.6-9.4-1.3-13.2-2.7c-39-14.6-78-29.5-117-44.3
		c-153.5-58.2-307-116.5-460.6-174.7c-1.2-0.5-2.4-1.2-3.6-1.4c-5.7-1.3-8.7-4.9-10.6-10.3c-4.8-13.1-10-25.9-15-38.9
		c-70.8-183.1-141.6-366.3-212.4-549.4C2826,11,2824.6,6.9,2822,0z"/>
	<path d="M1423.9,290.2"/>
	<path class="st16" d="M852.5,410.2"/>
	<path class="st17" d="M3255.1,2178.5c-7.5-3.7-438.4,23-487.9,25.7c-39.5,2.1-79,4.1-118.5,6.2c-17.8,0.9-35.6,1.9-53.4,2.9
		c-39.5,2.2-79,4.5-118.4,6.7c-23,1.3-46,2.4-69,3.7c-4.7,0.3-9.4,1-14.6,1.6c-1,14.2-2.1,27.6-2.9,41c-2.2,36-4.2,72-6.3,108
		c-1,16.5-1.9,33-3,49.5c-2.3,36.4-4.6,72.9-6.9,109.3c-2.4,38.6-4.9,77.2-7.2,115.8c-2.3,37.3-4.3,74.6-6.6,111.9
		c-3,48.6-6.1,97.2-9.1,145.7c-2.2,36-16.2,186.3-14.4,189.7c260.7-41.4,529.2-86.6,789.8-128c0.7-3.4,1.2-5.1,1.5-6.8
		c7.7-46.7,15.4-93.5,23-140.2c12.2-74.6,24.3-149.2,36.4-223.9C3200.1,2521.1,3254.5,2180,3255.1,2178.5z"/>
</g>
<g id="t9hcXA.tif">
	<g>
		<path d="M4278.6,1144.1c5.8-1,11.5-2.9,17.3-2.9c59.3-0.2,118.5,0.2,177.8-0.4c13.2-0.1,17.5,3,17.4,17
			c-0.4,323.5-0.3,647.1-0.3,970.6c0,6,0.2,12,0.1,17.9c-0.2,8.7,3.6,13.3,12.6,13.1c6-0.1,12,0.2,17.9,0.2
			c153.3,0,306.7,0.1,460-0.3c11.6,0,14.8,2.7,14.6,14.5c-0.7,51.1-0.7,102.2,0,153.3c0.2,12.4-2.2,16.8-15.9,16.8
			c-227.8-0.5-455.7-0.3-683.5-0.5c-6,0-12-3.2-18-4.9c0-1.1,0-2.2,0-3.3c0.7-6.4,1.9-12.8,1.9-19.2c0.1-382.1,0.1-764.1,0-1146.2
			c0-6.4-1.2-12.8-1.9-19.2C4278.6,1148.5,4278.6,1146.3,4278.6,1144.1z"/>
		<path d="M4278.6,1150.7c0.7,6.4,1.9,12.8,1.9,19.2c0.1,382.1,0.1,764.1,0,1146.2c0,6.4-1.2,12.8-1.9,19.2
			C4278.6,1940.4,4278.6,1545.5,4278.6,1150.7z"/>
		<path d="M10013.6,1436.1c-9,23-17.2,46.4-27.2,69c-38,85.6-75.9,171.4-115.3,256.4c-37.3,80.6-76.8,160.2-114.3,240.7
			c-8,17.1-17.5,23.9-37,23.2c-48.3-1.6-96.8-0.9-145.2-0.3c-12.7,0.2-19.4-4.3-24.8-15.9c-57.8-122.5-117.4-244.2-173.8-367.3
			c-28.3-61.9-50.9-126.3-76.6-189.4c-2-4.9-7.7-8.2-11.7-12.3c-1.5,5.1-4.3,10.3-4.2,15.4c1.3,55.4,4.2,110.8,4.5,166.2
			c1.7,233.7,2.5,467.4,4.2,701.2c0.1,16.4-4,21.4-20.8,21.1c-51.6-1.1-103.3-0.4-155-0.4c-21.3,0-21.3,0-21.3-21.4
			c0-372.5,0-745,0-1117.5c0-16.9,0.3-33.7-0.1-50.6c-0.2-9.5,3-13.4,13.2-13.3c76.1,0.4,152.3,0,228.4,0.6c5.4,0,13.4,5.1,15.6,9.9
			c40.8,89.8,80.9,180,121.3,269.9c27.1,60.3,54.7,120.4,81.9,180.6c29.4,65.1,58.5,130.4,88.2,195.4c2.4,5.2,7.9,9,12,13.4
			c3.6-4,8.5-7.4,10.7-12.1c44.1-94.2,87.7-188.5,131.7-282.8c45.3-97.1,90.7-194.1,136.1-291.2c10.8-23.1,22.4-45.9,32.1-69.4
			c4.8-11.7,11.7-14.6,23.5-14.5c66.9,0.5,133.8,0.8,200.7-0.2c15.9-0.2,18.8,5.4,18.8,19.7c-0.3,298-0.3,596-0.3,894
			c0,88.1,0,176.2,0,264.3c0,25.1,0,25-24.3,25c-49.5,0-99-0.7-148.4,0.4c-16.1,0.3-21.3-3.4-21.2-20.5c1-213.2,0.8-426.3,2-639.5
			c0.4-77.7,4-155.3,5.8-233c0.1-5.1-2.5-10.3-3.8-15.5C10017.3,1435.8,10015.5,1435.9,10013.6,1436.1z"/>
		<path d="M6110.4,2341.3c0-399.3,0-798.4,0-1199c5.1-0.4,9.7-1.2,14.4-1.2c59.3-0.1,118.6,0.1,177.8-0.2c9.8-0.1,15.1,2.8,20.1,12
			c55,101.5,110.6,202.7,166.4,303.9c72,130.6,144.2,261,216.3,391.5c26.2,47.4,52.3,94.8,78.8,142c2.3,4.1,6.8,6.9,10.3,10.3
			c1.9-0.9,3.7-1.8,5.6-2.7c0-33.4,0-66.8,0-100.1c0-5.4-0.8-10.8-0.8-16.2c-0.3-240.9-0.5-481.8-1.1-722.8c0-13,2.9-18.3,17-18.1
			c53.3,0.7,106.6,0.7,159.9,0c13.2-0.2,16.5,4.3,16.5,17c-0.3,388.8-0.3,777.7,0,1166.5c0,14.6-4,19.9-19.5,19.7
			c-59.3-0.8-118.6-0.6-177.8,0c-10.9,0.1-16.5-3.7-21.5-12.9c-76.4-139.3-153.2-278.4-229.9-417.5
			c-74.1-134.3-148.2-268.6-222.6-402.7c-3.6-6.4-10.4-11-15.8-16.5c-1.6,7.4-4.6,14.7-4.6,22.1c0.1,234.4,0.5,468.8,0.8,703.2
			c0.1,36.4,0.3,72.9,0.6,109.3c0.1,8.5-0.6,15-11.8,14.9c-58.2-0.3-116.4-0.3-174.5-0.4C6114.1,2343.3,6113.1,2342.5,6110.4,2341.3
			z"/>
		<path d="M7146.6,1142c4.3-0.4,8-0.9,11.6-0.9c151.7,0.1,303.5-1.9,455.2,1.1c97.4,2,191.7,22.2,276.8,73.7
			c71.5,43.3,123.5,103.4,155.1,180.7c22.3,54.5,30.4,111.8,30.3,170.3c-0.2,132.2,3.1,264.5-2.6,396.4
			c-5,116.2-56.1,212.8-151.2,283.2c-60.4,44.7-129.2,69.2-202.4,84.1c-50.9,10.4-101.9,13.6-153.6,13.3
			c-134.3-0.7-268.7-0.2-403-0.2c-5.2,0-10.5,0-16.2,0C7146.6,1941.9,7146.6,1542.5,7146.6,1142z M7353.8,1740.6
			c0,131.6,0,263.2,0,394.8c0,3.3,0,6.5,0,9.8c0.1,13.6,5.3,20,20.6,19.8c56.5-0.8,113.1,1.1,169.6-0.8
			c43.7-1.5,87.9-3.9,130.8-12.1c58.8-11.1,107.7-42,142.5-92c31.1-44.7,43.3-95.7,43.7-149.2c0.9-108.2,1.5-216.4-0.3-324.6
			c-0.6-33.2-5.9-67.3-15.3-99.1c-20.6-69.4-68.5-114.4-135.3-141.5c-52.1-21.1-106.4-24.7-161.2-25.4
			c-56.5-0.7-113.1-0.2-169.7-0.1c-25.1,0-25.3,0.2-25.3,25.7C7353.8,1477.4,7353.8,1609,7353.8,1740.6z"/>
		<path d="M10931.9,1745.3c0,63.6-1.4,127.3,0.4,190.8c1.6,55.1,15.7,106.8,49.8,152c35.7,47.3,82.5,75.5,139.9,87.8
			c58,12.4,116.1,14.2,174.3,1.5c72.5-15.8,129.8-53.3,159.6-123c11.6-27.2,14.3-58.3,20.6-87.8c1.5-6.8-0.4-14.6,2-20.9
			c1.7-4.5,8.2-10.7,11.9-10.3c57.7,5.8,115.4,12.4,172.9,19.8c4.6,0.6,11.6,8.7,11.7,13.5c1.3,72-15.1,139.4-51.7,202.1
			c-50.3,85.9-127.5,135.8-219.6,165c-90.1,28.6-182.3,36.5-276.6,24.4c-69.4-8.9-137.1-22.5-199.3-55.4
			c-87.7-46.4-150.6-115.1-184.7-209.6c-20.2-56-28.1-113.7-28.3-172.5c-0.5-133.8-1.8-267.6,2.1-401.3
			c2.7-92.9,35.3-176.9,98-247.5c65.8-74.1,149.4-115.6,244.9-137.2c92.2-20.8,184.5-20,276.8-5.2c71.4,11.4,138.9,35.5,197.4,79.1
			c56.1,41.8,96.4,95.9,117.5,163.5c14.1,45.3,23.7,91.1,24.1,138.8c0.1,13.9-4.3,19.4-18,20.7c-56.1,5.5-112.2,11-168.2,18
			c-16,2-18.7-3.8-18.5-17.4c0.4-36.9-8.1-72.1-23.7-105.4c-30.3-64.9-83.6-101.2-151.4-116.9c-63.9-14.8-128.2-14.5-191.3,5.5
			c-88.4,28-145.6,86.1-164.2,177.9c-6.6,32.2-8.5,65.6-9.5,98.5c-1.5,50.5-0.4,101.1-0.4,151.7
			C10931,1745.3,10931.4,1745.3,10931.9,1745.3z"/>
		<path d="M8218.2,2342.8c0-400.8,0-800.3,0-1200.9c6.1-0.3,11.4-0.8,16.7-0.8c234.4,0,468.8,0.1,703.2-0.3
			c14.8,0,19.8,3.6,19.5,19.1c-1,45.7-1,91.4,0,137c0.3,16.4-5.7,20.1-21,20c-162.6-0.5-325.2-0.3-487.8-0.3
			c-22.3,0-22.3,0-22.3,22.4c0,91.9,0,183.8,0,275.7c0,20.3,1.1,21.5,21.1,21.5c145.2,0,290.4,0,435.6,0c22.5,0,22.5,0,22.6,22.7
			c0,44.1-0.6,88.1,0.3,132.2c0.3,15.8-4.8,20.7-20.5,20.6c-145.2-0.5-290.4-0.3-435.6-0.3c-23.1,0-23.5,0.4-23.5,24
			c0,102.8,0,205.6,0,308.4c0,21.6,0.5,22.2,21.8,22.2c166.4,0,332.8,0,499.3,0c22,0,21.9,0,21.9,22.5c0,46.8-0.3,93.5,0.2,140.3
			c0.1,10.8-1.7,15.2-14,15.2c-240.9-0.4-481.9-0.3-722.8-0.3C8228.1,2343.6,8223.4,2343.1,8218.2,2342.8z"/>
		<path d="M5032.7,2343.7c11.5-33.9,21.8-65,32.6-96.1c21.3-61.4,43-122.6,64.4-184c24.7-70.5,49.4-141,73.9-211.6
			c32.5-93.6,64.6-187.3,97.1-280.9c27.1-78.2,54.6-156.4,81.7-234.6c20.6-59.4,41.1-118.8,61.1-178.3c4.2-12.5,9.7-17.8,24-17.5
			c56,1,112,0.8,168,0.1c12-0.1,17,3.9,20.8,15.1c20.3,60.6,41.5,120.9,62.4,181.3c23.8,68.6,47.6,137.1,71.5,205.6
			c23.8,68.5,47.8,137,71.5,205.5s47,137.2,70.9,205.7c33.3,95.7,66.9,191.3,100.3,286.9c11.5,33.1,22.7,66.3,34.7,101.1
			c-5.9,0.6-10,1.4-14,1.4c-62.5,0.1-125.1-0.3-187.6,0.3c-12,0.1-16.7-3.9-20.3-15.3c-26.4-83.7-53.8-167.1-80.3-250.7
			c-3.1-9.7-7.9-13-17.4-13c-133.8,0.1-267.6,0.2-401.3-0.1c-10.7,0-15.5,4.5-18.5,14c-24.5,77.4-49.2,154.8-73.9,232.2
			c-2.5,7.7-3.9,16-7.9,22.9c-2.5,4.3-8.7,9.1-13.2,9.2C5167.4,2343.9,5101.7,2343.7,5032.7,2343.7z M5544.8,1382.3
			c-53.8,175.4-106,345.8-158.5,517c5.4,1.3,8,2.4,10.5,2.4c99,0.1,197.9,0.1,296.9,0.2c12.4,0,13.3-6.2,10.1-15.9
			c-17.9-55.1-36.5-110-53.3-165.4c-32.4-106.7-63.7-213.7-95.7-320.5C5553.1,1394.5,5549.1,1389.8,5544.8,1382.3z"/>
		<path d="M10573,2343c-69.3,0-137.6,0-207,0c0-400.6,0-800.3,0-1201c69,0,137.2,0,207,0C10573,1541.8,10573,1941.6,10573,2343z"/>
	</g>
</g>
</svg>
